<svg id="svg" version="1.1" xmlns="http://www.w3.org/2000/svg" xmlns:xlink="http://www.w3.org/1999/xlink" width="400" height="400" viewBox="0, 0, 400,400"><g id="svgg"><path id="path0" d="M173.398 123.726 C 169.219 125.246,166.208 128.117,165.168 131.569 C 163.543 136.966,163.550 136.884,163.578 150.959 C 163.604 164.060,163.561 164.903,162.626 169.315 C 161.182 176.134,160.936 176.875,159.639 178.293 C 156.342 181.900,154.003 189.760,153.230 199.831 C 151.728 219.393,151.573 222.136,151.956 222.373 C 152.180 222.511,152.592 223.834,152.873 225.312 C 153.153 226.790,153.497 228.000,153.637 228.000 C 153.776 228.000,154.108 229.125,154.374 230.500 C 154.640 231.875,155.020 233.305,155.219 233.678 C 155.417 234.051,155.798 236.031,156.065 238.078 C 156.332 240.125,156.708 241.908,156.901 242.039 C 157.093 242.171,157.248 244.061,157.245 246.239 C 157.238 250.922,157.469 252.400,158.208 252.400 C 159.076 252.400,159.146 252.082,159.987 244.348 C 162.935 217.218,164.284 211.695,170.500 201.300 C 173.379 196.487,174.421 195.884,172.920 199.900 C 172.365 201.385,171.643 203.468,171.317 204.529 L 170.723 206.459 172.129 208.737 C 176.097 215.166,178.658 221.782,180.370 230.031 C 180.534 230.818,180.802 231.679,180.966 231.945 C 181.130 232.210,181.591 233.547,181.990 234.914 C 182.390 236.281,182.844 237.715,183.001 238.100 C 183.433 239.163,182.224 238.983,181.660 237.900 C 180.140 234.980,178.805 233.566,178.796 234.867 C 178.789 235.855,175.587 240.463,170.259 247.151 C 162.569 256.804,159.873 261.902,161.503 263.711 C 162.099 264.373,166.308 266.893,171.000 269.399 C 174.793 271.424,183.395 274.582,188.000 275.641 C 189.210 275.919,190.371 276.293,190.580 276.473 C 190.789 276.653,193.507 276.800,196.620 276.800 L 202.279 276.800 202.538 272.900 C 202.680 270.755,202.797 267.701,202.798 266.114 C 202.799 264.500,203.052 262.648,203.370 261.914 C 204.073 260.296,205.184 256.945,205.464 255.600 C 205.579 255.050,205.999 253.700,206.398 252.600 C 207.620 249.228,208.812 245.045,208.806 244.150 C 208.803 243.683,209.043 242.603,209.341 241.750 C 209.638 240.898,209.999 239.210,210.143 238.000 C 210.287 236.790,210.672 234.630,210.999 233.200 C 211.326 231.770,211.793 229.025,212.038 227.100 C 212.549 223.081,212.635 223.030,215.139 225.253 C 218.825 228.526,224.938 230.838,228.259 230.215 C 231.028 229.696,235.936 223.630,238.790 217.200 C 239.327 215.990,240.089 214.522,240.483 213.938 C 240.878 213.354,241.200 212.683,241.200 212.446 C 241.200 212.209,241.920 210.500,242.800 208.648 C 243.680 206.796,244.400 205.087,244.400 204.851 C 244.400 204.615,244.743 203.652,245.162 202.711 C 245.581 201.770,246.235 200.241,246.616 199.314 C 247.226 197.829,247.553 197.550,249.354 196.972 C 265.929 191.651,262.018 167.369,244.600 167.459 C 239.807 167.484,232.076 171.900,232.011 174.651 C 232.005 174.899,231.739 175.319,231.420 175.583 C 227.310 178.994,231.345 193.669,236.876 195.424 C 237.908 195.752,237.789 196.338,236.146 199.024 C 235.346 200.331,234.488 201.760,234.240 202.200 C 233.991 202.640,233.149 203.990,232.369 205.200 C 231.589 206.410,230.823 207.670,230.667 208.000 C 230.510 208.330,229.696 209.733,228.857 211.118 L 227.332 213.635 227.818 216.223 C 228.421 219.429,227.900 219.926,226.685 217.303 C 225.644 215.059,220.500 208.400,219.805 208.400 C 219.549 208.400,218.917 208.850,218.400 209.400 C 216.580 211.338,216.425 210.466,218.028 207.300 C 222.573 198.319,216.242 188.348,196.954 174.106 C 193.014 171.197,190.523 166.531,194.079 168.723 C 199.085 171.808,206.800 172.849,206.800 170.440 C 206.800 170.037,207.154 169.258,207.587 168.708 C 208.019 168.158,208.497 166.936,208.648 165.993 C 208.964 164.012,209.990 162.800,211.351 162.800 C 213.212 162.800,213.464 161.790,212.216 159.327 C 210.743 156.417,210.480 154.040,211.405 151.988 C 212.249 150.117,212.062 144.505,211.032 140.800 C 210.695 139.590,210.312 138.150,210.180 137.600 L 209.939 136.600 210.766 137.540 C 212.361 139.353,213.246 143.335,213.326 149.067 C 213.367 151.963,213.545 154.478,213.722 154.655 C 215.316 156.249,215.451 142.809,213.877 139.200 C 213.541 138.430,213.064 137.250,212.817 136.579 C 212.092 134.606,210.544 133.200,209.096 133.200 C 208.113 133.200,207.369 132.754,205.813 131.234 C 201.223 126.750,194.191 124.811,188.196 126.378 C 186.219 126.895,186.165 126.885,184.258 125.597 C 180.331 122.947,177.078 122.386,173.398 123.726 M178.881 132.214 C 178.999 132.332,178.644 133.547,178.092 134.913 C 176.650 138.483,176.475 142.949,177.557 148.600 C 178.450 153.270,178.655 157.395,178.012 157.793 C 177.798 157.925,177.540 157.620,177.437 157.116 C 176.627 153.127,175.269 148.078,174.286 145.401 C 172.515 140.578,172.611 137.292,174.612 134.238 C 175.500 132.882,178.247 131.580,178.881 132.214 M250.400 171.983 C 259.829 176.714,259.191 189.877,249.352 193.591 C 237.898 197.916,228.501 183.432,236.943 174.465 C 240.290 170.910,246.119 169.835,250.400 171.983 M243.382 180.582 C 241.649 182.315,242.684 184.800,245.138 184.800 C 247.380 184.800,248.428 182.028,246.800 180.400 C 245.730 179.330,244.572 179.391,243.382 180.582 M207.580 208.055 C 206.142 211.899,204.069 212.966,198.000 212.987 C 195.193 212.997,193.971 212.838,193.325 212.380 C 192.512 211.804,192.755 211.761,196.725 211.777 C 202.672 211.801,205.185 210.376,207.267 205.800 C 208.546 202.988,208.797 204.798,207.580 208.055 M158.501 264.682 C 158.103 265.539,158.103 265.817,158.501 266.067 C 158.828 266.272,159.044 266.106,159.128 265.585 C 159.373 264.070,159.022 263.564,158.501 264.682 " stroke="none" fill="#fa7b28" fill-rule="evenodd"></path><path id="path1" d="M197.300 33.686 C 195.925 33.897,194.800 34.211,194.800 34.383 C 194.800 34.556,193.908 34.815,192.817 34.960 C 191.726 35.105,190.578 35.479,190.265 35.792 C 189.953 36.105,189.210 36.483,188.616 36.632 C 188.022 36.781,187.444 37.140,187.333 37.431 C 187.222 37.721,186.111 38.166,184.865 38.420 C 183.619 38.674,182.240 39.033,181.800 39.218 C 181.360 39.402,180.444 39.662,179.765 39.794 C 177.220 40.290,174.400 43.735,174.400 46.346 C 174.400 46.948,174.248 47.611,174.062 47.820 C 173.095 48.905,172.682 54.175,172.950 61.991 C 173.193 69.038,173.152 70.000,172.613 70.000 C 170.636 70.000,169.215 75.849,170.733 77.733 C 170.940 77.990,171.308 80.258,171.551 82.774 C 171.795 85.290,172.161 87.452,172.365 87.578 C 172.569 87.705,172.860 88.301,173.012 88.904 C 173.163 89.507,173.531 90.000,173.829 90.000 C 174.528 90.000,175.200 91.262,175.200 92.574 C 175.200 93.138,175.355 93.600,175.545 93.600 C 175.735 93.600,176.120 94.680,176.400 96.000 C 176.680 97.320,177.045 98.400,177.211 98.400 C 177.377 98.400,177.636 98.889,177.786 99.487 C 177.936 100.085,178.496 101.497,179.029 102.626 C 180.283 105.275,180.106 111.600,178.779 111.600 C 178.600 111.600,178.351 111.923,178.226 112.319 C 178.004 113.019,173.499 115.600,172.500 115.600 C 172.225 115.600,172.000 115.744,172.000 115.920 C 172.000 116.095,171.325 116.481,170.500 116.776 C 169.675 117.071,168.910 117.422,168.800 117.556 C 168.690 117.690,167.970 118.117,167.200 118.506 C 166.430 118.894,164.990 119.686,164.000 120.267 C 162.073 121.398,158.166 121.760,157.118 120.905 C 156.833 120.673,155.790 120.248,154.800 119.961 C 153.810 119.674,152.903 119.301,152.785 119.133 C 151.933 117.922,137.357 117.959,135.807 119.176 C 135.583 119.352,134.454 119.717,133.299 119.988 C 132.143 120.259,131.109 120.624,131.000 120.800 C 129.926 122.537,125.485 121.965,123.332 119.812 C 122.579 119.059,121.574 118.319,121.100 118.168 C 120.625 118.018,119.982 117.639,119.670 117.328 C 119.359 117.016,118.585 116.657,117.952 116.530 C 117.318 116.404,116.800 116.157,116.800 115.983 C 116.800 115.605,113.250 114.800,111.580 114.800 C 110.931 114.800,110.400 114.620,110.400 114.400 C 110.400 114.174,109.267 114.000,107.800 114.000 C 106.333 114.000,105.200 114.174,105.200 114.400 C 105.200 114.620,104.740 114.800,104.177 114.800 C 102.904 114.800,99.470 115.633,99.200 116.007 C 99.090 116.159,98.325 116.504,97.500 116.773 C 96.675 117.042,96.000 117.400,96.000 117.568 C 96.000 117.736,95.280 118.089,94.400 118.353 C 93.520 118.616,92.800 118.983,92.800 119.168 C 92.800 119.352,92.215 119.739,91.500 120.028 C 90.785 120.317,90.056 120.789,89.880 121.077 C 89.148 122.274,88.458 121.654,88.905 120.200 C 89.141 119.430,89.484 118.800,89.667 118.800 C 89.850 118.800,90.000 118.521,90.000 118.179 C 90.000 117.838,90.357 116.893,90.794 116.079 C 92.011 113.812,93.600 110.177,93.600 109.661 C 93.600 109.408,93.751 109.200,93.936 109.200 C 94.121 109.200,94.510 108.480,94.800 107.600 C 95.090 106.720,95.450 106.000,95.600 106.000 C 95.750 106.000,96.110 105.280,96.400 104.400 C 96.690 103.520,97.079 102.800,97.264 102.800 C 97.449 102.800,97.600 102.632,97.600 102.427 C 97.600 101.731,100.139 96.400,100.471 96.400 C 100.652 96.400,100.800 96.189,100.800 95.932 C 100.800 95.384,103.214 90.294,103.613 90.000 C 103.762 89.890,104.104 89.125,104.373 88.300 C 104.642 87.475,104.994 86.800,105.156 86.800 C 105.318 86.800,105.698 86.170,106.000 85.400 C 106.302 84.630,106.696 84.000,106.875 84.000 C 107.054 84.000,107.200 83.774,107.200 83.499 C 107.200 83.223,107.740 82.488,108.400 81.865 C 109.060 81.242,109.608 80.522,109.619 80.266 C 109.629 80.010,110.361 79.260,111.245 78.600 C 112.129 77.940,113.151 77.085,113.515 76.700 C 113.880 76.315,114.413 76.000,114.701 76.000 C 114.989 76.000,115.329 75.730,115.455 75.400 C 115.715 74.722,119.170 74.538,119.820 75.168 C 120.622 75.943,124.778 76.396,126.906 75.940 C 128.428 75.614,129.005 75.616,129.116 75.949 C 129.199 76.197,129.522 76.400,129.833 76.400 C 130.145 76.400,130.400 76.580,130.400 76.800 C 130.400 77.280,133.865 77.343,134.158 76.868 C 134.271 76.685,135.362 76.312,136.582 76.039 C 137.802 75.766,138.800 75.376,138.800 75.171 C 138.800 74.967,139.027 74.800,139.304 74.800 C 140.207 74.800,141.922 72.865,142.215 71.517 C 142.372 70.793,142.647 70.106,142.827 69.991 C 143.284 69.698,144.118 58.196,143.939 54.655 C 143.633 48.592,136.947 46.272,125.200 48.153 C 117.354 49.409,116.184 49.629,115.580 49.964 C 115.239 50.152,113.934 50.536,112.680 50.817 C 111.426 51.098,110.400 51.450,110.400 51.600 C 110.400 51.749,109.680 52.110,108.800 52.400 C 107.920 52.690,107.200 53.040,107.200 53.178 C 107.200 53.315,106.705 53.720,106.100 54.078 C 105.495 54.436,102.198 57.490,98.774 60.864 C 95.350 64.239,91.144 68.260,89.426 69.800 C 85.032 73.741,74.074 84.657,72.400 86.762 C 71.630 87.730,70.550 89.080,70.000 89.761 C 69.451 90.443,68.821 91.237,68.600 91.528 C 68.380 91.818,67.795 92.435,67.300 92.900 C 66.805 93.364,66.400 93.892,66.400 94.072 C 66.400 94.252,66.117 94.715,65.771 95.100 C 64.277 96.762,63.201 98.229,63.200 98.604 C 63.200 98.826,62.840 99.232,62.400 99.507 C 61.960 99.782,61.600 100.260,61.600 100.570 C 61.600 100.880,61.465 101.193,61.300 101.267 C 60.832 101.475,58.400 105.079,58.400 105.565 C 58.400 105.804,58.265 106.003,58.100 106.008 C 57.935 106.012,57.260 106.920,56.600 108.027 C 55.940 109.133,55.090 110.411,54.712 110.867 C 54.333 111.322,53.916 112.034,53.785 112.448 C 53.654 112.861,53.400 113.200,53.222 113.200 C 53.043 113.200,52.673 113.740,52.400 114.400 C 52.127 115.060,51.789 115.600,51.649 115.600 C 51.510 115.600,51.141 116.185,50.830 116.900 C 50.519 117.615,50.160 118.290,50.032 118.400 C 49.789 118.610,49.085 119.798,48.029 121.782 C 47.683 122.432,47.175 123.209,46.901 123.510 C 46.626 123.810,46.291 124.493,46.157 125.028 C 46.023 125.563,45.753 126.000,45.557 126.000 C 45.360 126.000,45.200 126.175,45.200 126.388 C 45.200 126.602,44.750 127.760,44.200 128.963 C 43.650 130.165,43.199 131.295,43.198 131.474 C 43.196 131.653,42.886 132.340,42.508 133.000 C 41.723 134.369,41.471 142.995,42.201 143.515 C 42.421 143.672,42.863 144.308,43.183 144.928 C 43.779 146.083,47.529 149.600,48.165 149.600 C 48.275 149.600,49.047 150.053,49.882 150.607 C 50.717 151.161,51.670 151.789,52.000 152.002 C 52.330 152.214,53.410 152.928,54.400 153.587 C 55.390 154.246,56.425 154.789,56.700 154.793 C 56.975 154.797,57.200 154.946,57.200 155.125 C 57.200 155.304,57.830 155.698,58.600 156.000 C 59.370 156.302,60.000 156.688,60.000 156.859 C 60.000 157.029,60.720 157.384,61.600 157.647 C 62.480 157.911,63.200 158.271,63.200 158.447 C 63.200 158.624,63.920 158.984,64.800 159.247 C 65.680 159.511,66.400 159.857,66.400 160.016 C 66.400 160.175,67.210 160.509,68.200 160.758 C 69.190 161.008,70.000 161.369,70.000 161.561 C 70.000 161.754,70.675 162.037,71.500 162.192 C 72.325 162.346,73.720 162.794,74.600 163.186 C 75.480 163.578,76.920 164.028,77.800 164.185 C 78.680 164.343,79.580 164.613,79.800 164.785 C 80.020 164.958,81.730 165.318,83.600 165.585 C 85.470 165.852,87.191 166.229,87.424 166.421 C 88.468 167.284,98.712 167.756,107.468 167.344 C 116.181 166.934,122.871 167.214,123.133 167.999 C 123.207 168.220,123.509 168.400,123.806 168.400 C 124.788 168.400,128.674 175.167,129.437 178.203 C 129.574 178.751,129.824 179.200,129.991 179.200 C 130.159 179.200,130.523 180.010,130.800 181.000 C 131.077 181.990,131.432 182.800,131.588 182.800 C 131.744 182.800,132.110 183.520,132.400 184.400 C 132.690 185.280,133.050 186.000,133.200 186.000 C 133.350 186.000,133.710 186.720,134.000 187.600 C 134.290 188.480,134.650 189.200,134.800 189.200 C 134.950 189.200,135.310 189.920,135.600 190.800 C 135.890 191.680,136.250 192.400,136.400 192.400 C 136.550 192.400,136.910 193.120,137.200 194.000 C 137.490 194.880,137.835 195.600,137.966 195.600 C 138.097 195.600,138.459 196.185,138.770 196.900 C 139.081 197.615,139.440 198.290,139.568 198.400 C 139.696 198.510,140.116 199.230,140.502 200.000 C 141.737 202.465,144.103 206.593,144.398 206.800 C 144.555 206.910,144.904 207.675,145.173 208.500 C 145.442 209.325,145.828 210.000,146.031 210.000 C 146.234 210.000,146.406 210.225,146.412 210.500 C 146.419 210.775,147.229 212.615,148.212 214.589 C 149.196 216.564,150.000 218.419,150.000 218.713 C 150.000 219.007,150.160 219.148,150.356 219.027 C 150.552 218.906,150.834 219.454,150.982 220.244 C 151.422 222.590,151.570 221.736,152.215 213.166 C 153.449 196.750,153.618 194.953,154.212 192.004 C 155.602 185.096,157.268 180.888,159.639 178.293 C 160.936 176.875,161.182 176.134,162.626 169.315 C 163.561 164.903,163.604 164.060,163.578 150.959 C 163.550 136.884,163.543 136.966,165.168 131.569 C 166.447 127.323,172.462 122.800,176.830 122.800 C 178.297 122.800,182.406 124.347,184.258 125.597 C 186.165 126.885,186.219 126.895,188.196 126.378 C 194.191 124.811,201.223 126.750,205.813 131.234 C 207.369 132.754,208.113 133.200,209.096 133.200 C 210.544 133.200,212.092 134.606,212.817 136.579 C 213.064 137.250,213.541 138.430,213.877 139.200 C 215.451 142.809,215.316 156.249,213.722 154.655 C 213.545 154.478,213.367 151.963,213.326 149.067 C 213.246 143.335,212.361 139.353,210.766 137.540 L 209.939 136.600 210.180 137.600 C 210.312 138.150,210.695 139.590,211.032 140.800 C 212.062 144.505,212.249 150.117,211.405 151.988 C 210.480 154.040,210.743 156.417,212.216 159.327 C 213.464 161.790,213.212 162.800,211.351 162.800 C 209.990 162.800,208.964 164.012,208.648 165.993 C 208.497 166.936,208.019 168.158,207.587 168.708 C 207.154 169.258,206.800 170.037,206.800 170.440 C 206.800 172.849,199.085 171.808,194.079 168.723 C 190.523 166.531,193.014 171.197,196.954 174.106 C 216.242 188.348,222.573 198.319,218.028 207.300 C 216.425 210.466,216.580 211.338,218.400 209.400 C 218.917 208.850,219.549 208.400,219.805 208.400 C 220.500 208.400,225.644 215.059,226.685 217.303 C 227.900 219.926,228.421 219.429,227.818 216.223 L 227.332 213.635 228.857 211.118 C 229.696 209.733,230.510 208.330,230.667 208.000 C 230.823 207.670,231.589 206.410,232.369 205.200 C 233.149 203.990,233.991 202.640,234.240 202.200 C 234.488 201.760,235.346 200.331,236.146 199.024 C 237.789 196.338,237.908 195.752,236.876 195.424 C 231.345 193.669,227.310 178.994,231.420 175.583 C 231.739 175.319,232.005 174.899,232.011 174.651 C 232.076 171.900,239.807 167.484,244.600 167.459 C 262.018 167.369,265.929 191.651,249.354 196.972 C 247.553 197.550,247.226 197.829,246.616 199.314 C 246.235 200.241,245.581 201.770,245.162 202.711 C 244.743 203.652,244.400 204.615,244.400 204.851 C 244.400 205.087,243.680 206.796,242.800 208.648 C 241.920 210.500,241.200 212.209,241.200 212.446 C 241.200 212.683,240.878 213.354,240.483 213.938 C 240.089 214.522,239.327 215.990,238.790 217.200 C 235.936 223.630,231.028 229.696,228.259 230.215 C 224.938 230.838,218.825 228.526,215.139 225.253 C 212.635 223.030,212.549 223.081,212.038 227.100 C 211.793 229.025,211.326 231.770,210.999 233.200 C 210.672 234.630,210.287 236.790,210.143 238.000 C 209.999 239.210,209.638 240.898,209.341 241.750 C 209.043 242.603,208.803 243.683,208.806 244.150 C 208.812 245.045,207.620 249.228,206.398 252.600 C 205.999 253.700,205.579 255.050,205.464 255.600 C 205.184 256.945,204.073 260.296,203.370 261.914 C 203.052 262.648,202.799 264.500,202.798 266.114 C 202.793 272.509,202.327 276.726,201.603 276.915 C 199.912 277.357,198.270 280.800,199.750 280.800 C 200.349 280.800,201.713 278.106,201.383 277.573 C 201.241 277.343,222.224 277.200,255.976 277.200 L 310.800 277.200 310.800 280.000 L 310.800 282.800 313.196 282.800 L 315.593 282.800 315.696 304.100 L 315.800 325.400 334.759 325.500 C 348.315 325.571,353.873 325.471,354.259 325.151 C 354.669 324.811,354.800 323.269,354.800 318.794 L 354.800 312.887 355.870 312.618 C 356.459 312.470,359.494 312.387,362.615 312.433 C 365.735 312.479,368.494 312.389,368.744 312.234 C 369.072 312.032,369.200 307.849,369.200 297.376 L 369.200 282.800 375.800 282.800 L 382.400 282.800 382.400 280.009 L 382.400 277.218 389.700 277.109 L 397.000 277.000 397.111 271.500 L 397.223 266.000 389.811 266.000 L 382.400 266.000 382.400 263.400 C 382.400 261.201,382.292 260.796,381.700 260.771 C 381.315 260.756,378.459 260.767,375.353 260.797 C 370.448 260.844,369.672 260.764,369.453 260.193 C 369.314 259.831,369.200 253.069,369.200 245.167 L 369.200 230.800 362.010 230.800 L 354.820 230.800 354.710 224.300 L 354.600 217.800 335.100 217.696 L 315.600 217.592 315.600 239.226 L 315.600 260.860 313.900 260.793 C 310.642 260.664,310.800 260.531,310.800 263.400 L 310.800 266.000 276.400 266.000 L 242.000 266.000 242.000 261.159 C 242.000 255.295,242.713 244.904,243.192 243.800 C 243.382 243.360,243.745 241.023,243.997 238.607 C 244.250 236.191,244.603 234.031,244.782 233.807 C 244.961 233.583,245.340 232.050,245.626 230.400 C 245.911 228.750,246.262 227.310,246.405 227.200 C 246.548 227.090,246.900 225.875,247.187 224.500 C 247.474 223.125,247.836 222.000,247.991 222.000 C 248.146 222.000,248.510 221.010,248.800 219.800 C 249.090 218.590,249.465 217.600,249.632 217.600 C 249.799 217.600,250.052 217.072,250.194 216.428 C 250.336 215.783,250.698 215.050,251.000 214.800 C 251.302 214.550,251.664 213.819,251.805 213.177 C 251.946 212.535,252.214 211.915,252.400 211.800 C 252.585 211.685,253.307 210.423,254.002 208.996 C 254.698 207.568,255.398 206.400,255.559 206.400 C 255.719 206.400,256.098 205.770,256.400 205.000 C 256.702 204.230,257.074 203.600,257.226 203.600 C 257.378 203.600,257.727 203.060,258.000 202.400 C 258.273 201.740,258.622 201.200,258.774 201.200 C 258.926 201.200,259.298 200.570,259.600 199.800 C 259.902 199.030,260.286 198.400,260.453 198.400 C 260.763 198.400,261.488 197.213,262.591 194.900 C 262.932 194.185,263.352 193.600,263.525 193.600 C 263.698 193.600,264.067 192.970,264.346 192.200 C 264.624 191.430,264.984 190.800,265.146 190.800 C 265.307 190.800,265.667 190.170,265.946 189.400 C 266.224 188.630,266.613 188.000,266.810 188.000 C 267.007 188.000,267.384 187.280,267.647 186.400 C 267.911 185.520,268.261 184.800,268.424 184.800 C 268.588 184.800,268.926 184.305,269.177 183.700 C 269.427 183.095,270.070 181.880,270.606 181.000 C 271.829 178.993,272.400 177.711,272.400 176.974 C 272.400 176.658,272.558 176.400,272.751 176.400 C 272.945 176.400,273.340 175.815,273.629 175.100 C 274.361 173.293,275.647 171.600,276.288 171.600 C 276.583 171.600,276.922 171.348,277.040 171.039 C 277.159 170.731,277.860 170.365,278.599 170.227 C 279.337 170.088,280.000 169.815,280.071 169.619 C 280.236 169.165,285.734 168.400,288.829 168.400 C 290.143 168.400,291.200 168.222,291.200 168.000 C 291.200 167.760,292.781 167.600,295.142 167.600 C 300.522 167.600,309.370 166.852,309.533 166.383 C 309.607 166.172,310.162 166.000,310.767 166.000 C 312.251 166.000,316.445 165.225,317.245 164.802 C 317.600 164.615,318.995 164.245,320.345 163.979 C 321.695 163.713,322.800 163.364,322.800 163.203 C 322.800 163.041,323.880 162.680,325.200 162.400 C 326.520 162.120,327.600 161.764,327.600 161.609 C 327.600 161.454,328.590 161.090,329.800 160.800 C 331.010 160.510,332.000 160.134,332.000 159.965 C 332.000 159.796,332.990 159.436,334.200 159.165 C 335.410 158.894,336.400 158.541,336.400 158.381 C 336.400 158.220,337.075 157.963,337.900 157.808 C 338.725 157.654,340.155 157.184,341.078 156.764 C 342.001 156.344,342.953 156.000,343.195 156.000 C 343.648 156.000,347.986 153.969,349.400 153.095 C 352.385 151.249,357.200 146.942,357.200 146.117 C 357.200 145.833,357.362 145.600,357.561 145.600 C 358.043 145.600,358.800 143.364,358.800 141.940 C 358.800 141.313,358.980 140.800,359.200 140.800 C 359.704 140.800,359.717 139.040,359.225 137.428 C 359.019 136.753,358.662 135.031,358.432 133.602 C 358.201 132.173,357.829 130.943,357.606 130.869 C 357.383 130.794,357.200 130.441,357.200 130.084 C 357.200 129.290,353.229 121.200,352.839 121.200 C 352.686 121.200,352.341 120.592,352.073 119.850 C 351.804 119.107,351.170 118.053,350.664 117.507 C 350.159 116.961,349.510 115.949,349.224 115.257 C 348.937 114.566,348.557 114.000,348.378 114.000 C 348.200 114.000,347.947 113.662,347.816 113.249 C 347.684 112.836,347.133 111.981,346.589 111.349 C 346.046 110.717,345.601 109.994,345.600 109.743 C 345.600 109.491,345.330 109.182,345.000 109.055 C 344.670 108.929,344.400 108.610,344.400 108.346 C 344.400 108.083,344.135 107.582,343.810 107.234 C 342.504 105.830,340.800 103.679,340.800 103.434 C 340.800 103.290,340.260 102.645,339.600 102.000 C 338.940 101.355,338.400 100.651,338.400 100.436 C 338.400 100.221,338.071 99.810,337.669 99.523 C 337.267 99.235,336.772 98.707,336.569 98.349 C 336.128 97.571,332.175 92.980,330.900 91.766 C 330.405 91.294,330.000 90.790,330.000 90.646 C 330.000 90.502,328.695 89.051,327.100 87.422 C 325.505 85.793,323.914 84.131,323.565 83.730 C 323.216 83.328,322.496 82.607,321.965 82.128 C 321.434 81.648,320.794 81.018,320.543 80.728 C 320.292 80.437,318.672 78.897,316.943 77.305 C 312.553 73.262,312.382 73.111,311.017 72.084 C 309.098 70.640,306.368 68.284,305.474 67.300 C 305.024 66.805,304.522 66.400,304.358 66.400 C 304.064 66.400,302.605 65.109,297.123 60.000 C 295.589 58.570,294.064 57.248,293.734 57.061 C 293.403 56.875,292.653 56.234,292.067 55.635 C 291.480 55.037,290.370 54.300,289.600 53.997 C 288.830 53.693,288.110 53.335,288.000 53.200 C 287.890 53.065,287.170 52.722,286.400 52.437 C 285.630 52.152,284.640 51.782,284.200 51.615 C 283.760 51.448,282.680 51.094,281.800 50.829 C 280.920 50.564,279.840 50.194,279.400 50.008 C 278.188 49.494,275.357 48.796,271.800 48.136 C 270.040 47.810,268.047 47.376,267.372 47.171 C 263.277 45.934,256.000 48.672,256.000 51.450 C 256.000 51.716,255.775 52.008,255.500 52.100 C 254.547 52.418,254.812 71.388,255.800 73.558 C 257.598 77.509,268.391 79.679,270.930 76.601 C 271.145 76.341,271.332 76.376,271.464 76.700 C 271.696 77.272,275.032 77.396,275.372 76.845 C 275.493 76.650,276.233 76.370,277.017 76.223 C 277.801 76.076,278.542 75.696,278.664 75.378 C 278.914 74.727,280.000 74.583,280.000 75.200 C 280.000 75.420,280.239 75.600,280.531 75.600 C 281.472 75.600,284.926 78.132,287.351 80.600 C 290.804 84.113,291.200 84.578,291.200 85.114 C 291.200 85.381,291.380 85.600,291.600 85.600 C 291.820 85.600,292.000 85.799,292.000 86.042 C 292.000 86.285,292.450 87.019,293.000 87.673 C 293.550 88.327,294.000 89.109,294.000 89.411 C 294.000 89.713,294.225 90.104,294.501 90.280 C 294.776 90.456,295.271 91.140,295.601 91.800 C 295.930 92.460,296.338 93.180,296.506 93.400 C 297.336 94.487,298.800 96.871,298.800 97.136 C 298.800 97.302,299.070 97.789,299.400 98.219 C 300.285 99.371,301.736 101.658,302.308 102.800 C 302.583 103.350,303.162 104.340,303.593 105.000 C 304.024 105.660,304.747 106.830,305.199 107.600 C 305.651 108.370,306.402 109.630,306.868 110.400 C 307.335 111.170,308.260 112.790,308.924 114.000 C 309.588 115.210,310.245 116.290,310.383 116.400 C 310.521 116.510,311.151 117.635,311.783 118.901 C 312.924 121.187,312.996 122.135,311.948 121.094 C 311.646 120.795,310.815 120.293,310.100 119.978 C 309.385 119.663,308.800 119.276,308.800 119.118 C 308.800 118.961,308.080 118.616,307.200 118.353 C 306.320 118.089,305.600 117.729,305.600 117.553 C 305.600 117.376,304.880 117.016,304.000 116.753 C 303.120 116.489,302.400 116.130,302.400 115.955 C 302.400 115.503,299.674 114.805,297.900 114.802 C 297.075 114.801,296.400 114.620,296.400 114.400 C 296.400 113.913,291.734 113.859,291.435 114.343 C 291.319 114.531,290.273 114.786,289.112 114.909 C 287.950 115.032,286.550 115.329,286.000 115.569 C 283.618 116.610,279.716 118.999,278.732 120.019 C 276.993 121.822,274.793 122.164,272.237 121.028 C 270.302 120.169,268.364 119.600,267.374 119.600 C 266.875 119.600,266.407 119.421,266.333 119.203 C 265.902 117.920,250.865 117.852,250.031 119.129 C 249.904 119.324,248.810 119.716,247.600 120.000 C 246.390 120.284,245.287 120.690,245.149 120.903 C 244.802 121.436,239.640 121.502,239.286 120.977 C 239.128 120.745,238.370 120.305,237.600 120.000 C 236.830 119.695,236.110 119.345,236.000 119.223 C 235.616 118.795,230.596 116.389,230.100 116.394 C 229.825 116.397,229.600 116.248,229.600 116.063 C 229.600 115.878,228.880 115.511,228.000 115.247 C 227.120 114.984,226.400 114.629,226.400 114.459 C 226.400 114.288,225.770 113.902,225.000 113.600 C 224.230 113.298,223.600 112.809,223.600 112.513 C 223.600 112.217,223.342 111.876,223.026 111.755 C 221.392 111.128,221.205 102.383,222.801 101.200 C 223.170 100.926,224.000 97.480,224.000 96.223 C 224.000 95.660,224.171 95.200,224.380 95.200 C 224.589 95.200,224.884 94.105,225.036 92.766 C 225.220 91.137,225.514 90.254,225.925 90.097 C 227.761 89.392,228.800 86.380,228.800 81.760 C 228.800 80.609,228.992 79.603,229.227 79.524 C 230.896 78.968,229.579 70.000,227.829 70.000 C 227.274 70.000,227.200 68.822,227.200 59.977 C 227.200 49.328,226.825 45.403,225.575 42.950 C 225.149 42.115,224.800 41.199,224.800 40.915 C 224.800 40.632,224.614 40.400,224.387 40.400 C 224.161 40.400,223.856 40.085,223.711 39.700 C 222.867 37.465,219.891 35.732,216.039 35.232 C 214.410 35.021,212.970 34.678,212.839 34.469 C 212.081 33.263,203.022 32.807,197.300 33.686 M176.519 132.650 C 172.946 134.412,172.075 139.380,174.286 145.401 C 175.269 148.078,176.627 153.127,177.437 157.116 C 177.540 157.620,177.798 157.925,178.012 157.793 C 178.655 157.395,178.450 153.270,177.557 148.600 C 176.475 142.949,176.650 138.483,178.092 134.913 C 179.359 131.777,179.086 131.384,176.519 132.650 M242.400 171.150 C 229.735 175.320,231.433 193.275,244.588 194.293 C 257.361 195.281,261.924 177.765,250.400 171.983 C 248.463 171.011,244.177 170.565,242.400 171.150 M246.800 180.400 C 248.428 182.028,247.380 184.800,245.138 184.800 C 242.684 184.800,241.649 182.315,243.382 180.582 C 244.572 179.391,245.730 179.330,246.800 180.400 M170.500 201.300 C 164.281 211.700,162.913 217.309,159.986 244.400 C 159.408 249.749,159.022 251.923,158.593 252.244 C 157.935 252.737,157.745 256.762,158.349 257.420 C 158.541 257.629,158.806 259.690,158.939 262.000 L 159.180 266.200 124.790 266.096 L 90.400 265.991 90.400 263.615 C 90.400 260.847,89.932 260.378,87.493 260.705 C 85.158 261.018,85.213 261.549,85.206 238.704 L 85.200 217.608 65.800 217.608 L 46.400 217.608 46.400 224.204 L 46.400 230.800 39.000 230.800 L 31.600 230.800 31.600 245.800 L 31.600 260.800 24.800 260.800 L 18.000 260.800 18.000 263.391 L 18.000 265.982 10.900 266.091 L 3.800 266.200 3.800 271.600 L 3.800 277.000 10.882 277.109 L 17.964 277.218 18.082 279.909 L 18.200 282.600 24.900 282.710 L 31.600 282.819 31.600 297.591 L 31.600 312.364 38.500 312.482 C 42.295 312.547,45.621 312.447,45.890 312.259 C 46.270 311.995,46.405 313.437,46.490 318.659 L 46.600 325.400 56.100 325.507 C 63.010 325.585,65.600 325.490,65.600 325.158 C 65.600 324.817,65.738 324.817,66.150 325.159 C 66.536 325.479,69.437 325.583,75.850 325.508 L 85.000 325.400 85.104 304.100 L 85.207 282.800 87.561 282.800 C 90.276 282.800,90.400 282.650,90.400 279.367 L 90.400 277.200 140.633 277.200 C 193.114 277.200,194.307 277.159,187.749 275.584 C 182.910 274.421,174.790 271.423,171.000 269.399 C 166.308 266.893,162.099 264.373,161.503 263.711 C 159.873 261.902,162.569 256.804,170.259 247.151 C 175.587 240.463,178.789 235.855,178.796 234.867 C 178.805 233.566,180.140 234.980,181.660 237.900 C 182.224 238.983,183.433 239.163,183.001 238.100 C 182.844 237.715,182.390 236.281,181.990 234.914 C 181.591 233.547,181.130 232.210,180.966 231.945 C 180.802 231.679,180.534 230.818,180.370 230.031 C 178.658 221.782,176.097 215.166,172.129 208.737 L 170.723 206.459 171.317 204.529 C 171.643 203.468,172.365 201.385,172.920 199.900 C 174.421 195.884,173.379 196.487,170.500 201.300 M207.267 205.800 C 205.185 210.376,202.672 211.801,196.725 211.777 C 192.755 211.761,192.512 211.804,193.325 212.380 C 193.971 212.838,195.193 212.997,198.000 212.987 C 204.069 212.966,206.142 211.899,207.580 208.055 C 208.797 204.798,208.546 202.988,207.267 205.800 M354.699 252.900 C 354.634 256.915,354.581 253.630,354.581 245.600 C 354.581 237.570,354.634 234.285,354.699 238.300 C 354.765 242.315,354.765 248.885,354.699 252.900 M132.971 279.649 C 133.999 279.890,134.684 279.876,134.951 279.609 C 135.230 279.330,134.728 279.213,133.380 279.240 L 131.400 279.280 132.971 279.649 M191.282 280.300 C 191.389 280.936,190.863 281.010,185.500 281.111 L 179.600 281.221 179.600 301.211 L 179.600 321.200 191.400 321.200 L 203.200 321.200 203.200 316.000 L 203.200 310.800 196.400 310.800 L 189.600 310.800 189.600 308.600 L 189.600 306.400 194.200 306.400 L 198.800 306.400 198.800 301.600 L 198.800 296.800 194.200 296.800 L 189.600 296.800 189.600 294.410 L 189.600 292.019 196.300 291.910 L 203.000 291.800 203.112 286.500 L 203.223 281.200 198.226 281.200 C 193.638 281.200,193.193 281.134,192.800 280.400 C 192.268 279.407,191.120 279.331,191.282 280.300 M142.000 280.400 C 141.546 280.693,141.722 280.789,142.724 280.794 C 143.505 280.797,143.946 280.636,143.800 280.400 C 143.489 279.897,142.778 279.897,142.000 280.400 M95.200 301.200 L 95.200 321.200 100.000 321.200 L 104.800 321.200 104.800 313.800 L 104.800 306.400 110.168 306.400 C 115.384 306.400,117.805 305.894,118.336 304.693 C 118.410 304.524,118.770 304.087,119.136 303.722 C 119.718 303.140,119.800 301.868,119.800 293.413 L 119.800 283.769 118.486 282.485 L 117.172 281.200 106.186 281.200 L 95.200 281.200 95.200 301.200 M124.000 281.482 C 121.205 282.499,121.152 282.901,121.284 302.090 L 121.400 318.781 122.725 319.990 L 124.049 321.200 133.608 321.200 L 143.168 321.200 144.184 320.104 C 145.635 318.539,145.651 318.298,145.519 300.170 L 145.400 283.739 144.201 282.470 L 143.003 281.200 133.801 281.232 C 128.741 281.249,124.330 281.361,124.000 281.482 M147.200 301.200 L 147.200 321.200 152.063 321.200 L 156.927 321.200 159.710 318.400 C 161.241 316.860,162.612 315.600,162.757 315.600 C 162.901 315.600,164.245 316.860,165.744 318.400 L 168.468 321.200 173.034 321.200 L 177.600 321.200 177.600 301.188 L 177.600 281.175 172.700 281.288 L 167.800 281.400 167.694 293.068 L 167.588 304.737 165.313 302.568 C 162.543 299.927,162.703 299.929,160.000 302.504 L 157.800 304.599 157.694 292.900 L 157.588 281.200 152.394 281.200 L 147.200 281.200 147.200 301.200 M204.400 301.200 L 204.400 321.200 209.400 321.200 L 214.400 321.200 214.400 313.800 L 214.400 306.400 216.800 306.400 L 219.200 306.400 219.200 313.800 L 219.200 321.200 224.027 321.200 L 228.854 321.200 228.727 311.977 L 228.600 302.753 227.600 301.999 L 226.600 301.246 227.482 300.424 C 228.707 299.283,228.875 297.930,228.728 290.357 L 228.600 283.738 227.401 282.469 L 226.203 281.200 215.301 281.200 L 204.400 281.200 204.400 301.200 M244.400 301.200 L 244.400 321.200 249.600 321.200 L 254.800 321.200 254.800 314.000 L 254.800 306.800 259.400 306.800 L 264.000 306.800 264.000 301.800 L 264.000 296.800 259.400 296.800 L 254.800 296.800 254.800 294.400 L 254.800 292.000 261.400 292.000 L 268.000 292.000 268.000 286.600 L 268.000 281.200 256.200 281.200 L 244.400 281.200 244.400 301.200 M270.000 301.200 L 270.000 321.200 275.000 321.200 L 280.000 321.200 280.000 301.200 L 280.000 281.200 275.000 281.200 L 270.000 281.200 270.000 301.200 M281.600 286.600 L 281.600 292.000 285.400 292.000 L 289.200 292.000 289.200 306.600 L 289.200 321.200 294.000 321.200 L 298.800 321.200 298.800 306.615 L 298.800 292.030 302.500 291.915 L 306.200 291.800 306.312 286.500 L 306.423 281.200 294.012 281.200 L 281.600 281.200 281.600 286.600 M354.800 297.267 C 354.800 305.223,354.702 311.635,354.582 311.515 C 354.243 311.176,354.162 282.800,354.500 282.800 C 354.665 282.800,354.800 289.310,354.800 297.267 M110.400 294.400 L 110.400 296.800 107.600 296.800 L 104.800 296.800 104.800 294.400 L 104.800 292.000 107.600 292.000 L 110.400 292.000 110.400 294.400 M136.000 301.400 L 136.000 310.800 133.400 310.800 L 130.800 310.800 130.800 301.400 L 130.800 292.000 133.400 292.000 L 136.000 292.000 136.000 301.400 M219.200 294.400 L 219.200 296.800 216.800 296.800 L 214.400 296.800 214.400 294.400 L 214.400 292.000 216.800 292.000 L 219.200 292.000 219.200 294.400 " stroke="none" fill="#03466f" fill-rule="evenodd"></path></g></svg>